<svg width="25" height="25" viewBox="0 0 25 25" fill="none" xmlns="http://www.w3.org/2000/svg">
<mask id="mask0_105_85" style="mask-type:alpha" maskUnits="userSpaceOnUse" x="0" y="0" width="23" height="24">
<path d="M0 0L23 0.489796V12.2449H12.7778V24H0V0Z" fill="#D9D9D9"/>
</mask>
<g mask="url(#mask0_105_85)">
<rect x="2" y="3" width="18" height="18" rx="2" stroke="black" stroke-width="2" stroke-linejoin="round"/>
</g>
<path fill-rule="evenodd" clip-rule="evenodd" d="M23.7363 12.264C23.9052 12.4328 24 12.6618 24 12.9006C24 13.1394 23.9052 13.3684 23.7363 13.5372L16.9869 20.2867C16.8977 20.3759 16.7918 20.4467 16.6752 20.495C16.5587 20.5433 16.4338 20.5681 16.3076 20.5681C16.1814 20.5681 16.0565 20.5433 15.94 20.495C15.8234 20.4467 15.7175 20.3759 15.6283 20.2867L12.2749 16.9339C12.1889 16.8508 12.1203 16.7515 12.0731 16.6416C12.0259 16.5317 12.0011 16.4136 12 16.294C11.999 16.1744 12.0218 16.0559 12.0671 15.9452C12.1123 15.8345 12.1792 15.734 12.2637 15.6494C12.3483 15.5649 12.4488 15.498 12.5595 15.4527C12.6702 15.4075 12.7887 15.3847 12.9083 15.3857C13.0279 15.3868 13.146 15.4116 13.2559 15.4588C13.3658 15.506 13.4651 15.5746 13.5482 15.6606L16.3073 18.4197L22.4625 12.264C22.5461 12.1803 22.6454 12.1139 22.7547 12.0686C22.864 12.0233 22.9811 12 23.0994 12C23.2177 12 23.3348 12.0233 23.4441 12.0686C23.5534 12.1139 23.6527 12.1803 23.7363 12.264Z" fill="black"/>
</svg>
