<svg width="16" height="22" viewBox="0 0 16 22" fill="none" xmlns="http://www.w3.org/2000/svg">
<path d="M3.11048 19.6598C2.66639 19.6598 2.28636 19.4956 1.97038 19.1674C1.6544 18.8391 1.49614 18.444 1.49561 17.982V9.59304C1.49561 9.13164 1.65386 8.7368 1.97038 8.40851C2.28689 8.08023 2.66693 7.9158 3.11048 7.91524H3.91792V6.23745C3.91792 5.07698 4.31168 4.08792 5.0992 3.27027C5.88672 2.45263 6.83869 2.04353 7.95511 2.04297C9.07152 2.04241 10.0238 2.45151 10.8118 3.27027C11.5999 4.08904 11.9934 5.0781 11.9923 6.23745V7.91524H12.7997C13.2438 7.91524 13.6241 8.07967 13.9406 8.40851C14.2572 8.73736 14.4151 9.1322 14.4146 9.59304V17.982C14.4146 18.4434 14.2566 18.8385 13.9406 19.1674C13.6247 19.4962 13.2444 19.6603 12.7997 19.6598H3.11048ZM3.11048 17.982H12.7997V9.59304H3.11048V17.982ZM7.95511 15.4653C8.3992 15.4653 8.7795 15.3012 9.09602 14.9729C9.41253 14.6446 9.57052 14.2495 9.56998 13.7875C9.56944 13.3256 9.41145 12.9307 9.09602 12.603C8.78058 12.2753 8.40027 12.1108 7.95511 12.1097C7.50994 12.1086 7.12991 12.273 6.815 12.603C6.5001 12.933 6.34185 13.3278 6.34023 13.7875C6.33862 14.2472 6.49687 14.6424 6.815 14.9729C7.13313 15.3034 7.51317 15.4675 7.95511 15.4653ZM5.53279 7.91524H10.3774V6.23745C10.3774 5.53837 10.1419 4.94415 9.67091 4.4548C9.19991 3.96544 8.62797 3.72076 7.95511 3.72076C7.28224 3.72076 6.71031 3.96544 6.2393 4.4548C5.7683 4.94415 5.53279 5.53837 5.53279 6.23745V7.91524Z" fill="black"/>
</svg>
