<svg width="22" height="22" viewBox="0 0 22 22" fill="none" xmlns="http://www.w3.org/2000/svg">
<g clip-path="url(#clip0_1635_977)">
<path d="M21.949 11.1539C21.9182 11.0843 21.1721 9.42923 19.5135 7.7706C17.3035 5.56057 14.5121 4.39258 11.4397 4.39258C8.36735 4.39258 5.57596 5.56057 3.36593 7.7706C1.7073 9.42923 0.957705 11.087 0.930399 11.1539C0.890332 11.244 0.869629 11.3416 0.869629 11.4402C0.869629 11.5388 0.890332 11.6363 0.930399 11.7265C0.961228 11.796 1.7073 13.4503 3.36593 15.1089C5.57596 17.318 8.36735 18.486 11.4397 18.486C14.5121 18.486 17.3035 17.318 19.5135 15.1089C21.1721 13.4503 21.9182 11.796 21.949 11.7265C21.9891 11.6363 22.0098 11.5388 22.0098 11.4402C22.0098 11.3416 21.9891 11.244 21.949 11.1539ZM11.4397 17.0767C8.72849 17.0767 6.35991 16.091 4.39915 14.1479C3.59466 13.3478 2.9102 12.4355 2.36705 11.4393C2.90999 10.443 3.59447 9.53066 4.39915 8.73072C6.35991 6.78759 8.72849 5.80192 11.4397 5.80192C14.151 5.80192 16.5195 6.78759 18.4803 8.73072C19.2863 9.53052 19.9723 10.4429 20.5168 11.4393C19.8817 12.6249 17.115 17.0767 11.4397 17.0767ZM11.4397 7.21127C10.6035 7.21127 9.78605 7.45924 9.09075 7.92382C8.39545 8.38841 7.85353 9.04873 7.53352 9.82131C7.21351 10.5939 7.12978 11.444 7.29292 12.2642C7.45606 13.0843 7.85874 13.8377 8.45005 14.429C9.04135 15.0203 9.79471 15.423 10.6149 15.5861C11.435 15.7492 12.2851 15.6655 13.0577 15.3455C13.8303 15.0255 14.4906 14.4836 14.9552 13.7883C15.4198 13.093 15.6678 12.2755 15.6678 11.4393C15.6666 10.3183 15.2208 9.24358 14.4281 8.45092C13.6355 7.65826 12.5607 7.21244 11.4397 7.21127ZM11.4397 14.258C10.8822 14.258 10.3373 14.0927 9.87374 13.783C9.41021 13.4732 9.04893 13.033 8.83559 12.518C8.62225 12.0029 8.56643 11.4362 8.67519 10.8894C8.78395 10.3426 9.0524 9.84039 9.4466 9.44619C9.84081 9.05199 10.343 8.78354 10.8898 8.67478C11.4366 8.56602 12.0033 8.62184 12.5184 8.83518C13.0334 9.04852 13.4737 9.4098 13.7834 9.87333C14.0931 10.3369 14.2584 10.8818 14.2584 11.4393C14.2584 12.1869 13.9614 12.9038 13.4328 13.4324C12.9042 13.961 12.1873 14.258 11.4397 14.258Z" fill="black"/>
</g>
<defs>
<clipPath id="clip0_1635_977">
<rect width="21.1402" height="21.1402" fill="white" transform="translate(0.869629 0.869141)"/>
</clipPath>
</defs>
</svg>
