<svg width="32" height="32" viewBox="0 0 32 32" fill="none" xmlns="http://www.w3.org/2000/svg">
<circle cx="16" cy="16" r="15.1786" transform="matrix(-1 0 0 1 32 0)" fill="white" stroke="#EEEEEE" stroke-width="1.64286"/>
<g clip-path="url(#clip0_695_800)">
<path fill-rule="evenodd" clip-rule="evenodd" d="M18.8232 16.5387C18.966 16.3959 19.0462 16.2021 19.0462 16.0001C19.0462 15.798 18.966 15.6043 18.8232 15.4614L14.5131 11.1513C14.4428 11.0785 14.3587 11.0205 14.2657 10.9806C14.1728 10.9406 14.0728 10.9196 13.9717 10.9187C13.8705 10.9179 13.7702 10.9371 13.6765 10.9754C13.5829 11.0137 13.4978 11.0703 13.4263 11.1419C13.3547 11.2134 13.2982 11.2985 13.2599 11.3921C13.2216 11.4857 13.2023 11.5861 13.2032 11.6872C13.204 11.7884 13.2251 11.8884 13.265 11.9813C13.3049 12.0743 13.363 12.1584 13.4357 12.2286L17.2072 16.0001L13.4357 19.7715C13.2969 19.9152 13.2201 20.1076 13.2219 20.3074C13.2236 20.5072 13.3037 20.6983 13.445 20.8395C13.5863 20.9808 13.7774 21.0609 13.9771 21.0627C14.1769 21.0644 14.3694 20.9876 14.5131 20.8488L18.8232 16.5387Z" fill="black"/>
</g>
<defs>
<clipPath id="clip0_695_800">
<rect width="18.2857" height="18.2857" fill="white" transform="matrix(4.37114e-08 1 1 -4.37114e-08 6.85547 6.85718)"/>
</clipPath>
</defs>
</svg>
