<svg width="54" height="54" viewBox="0 0 54 54" fill="none" xmlns="http://www.w3.org/2000/svg">
<circle cx="27" cy="27" r="27" fill="#FBAE1E"/>
<path d="M27 19L28.912 22.703L33 23.297L30 26L31 30L27 27.75L23 30L24 26L21 23.297L25.2 22.703L27 19Z" fill="white"/>
<path d="M28.736 41L27 40L31 33H37C37.2628 33.0004 37.523 32.9489 37.7658 32.8486C38.0087 32.7482 38.2293 32.6009 38.4151 32.4151C38.6009 32.2293 38.7482 32.0087 38.8486 31.7658C38.9489 31.523 39.0004 31.2628 39 31V19C39.0004 18.7372 38.9489 18.477 38.8486 18.2342C38.7482 17.9913 38.6009 17.7707 38.4151 17.5849C38.2293 17.3991 38.0087 17.2518 37.7658 17.1514C37.523 17.0511 37.2628 16.9996 37 17H17C16.7372 16.9996 16.477 17.0511 16.2342 17.1514C15.9913 17.2518 15.7707 17.3991 15.5849 17.5849C15.3991 17.7707 15.2518 17.9913 15.1514 18.2342C15.0511 18.477 14.9996 18.7372 15 19V31C14.9996 31.2628 15.0511 31.523 15.1514 31.7658C15.2518 32.0087 15.3991 32.2293 15.5849 32.4151C15.7707 32.6009 15.9913 32.7482 16.2342 32.8486C16.477 32.9489 16.7372 33.0004 17 33H26V35H17C15.9391 35 14.9217 34.5786 14.1716 33.8284C13.4214 33.0783 13 32.0609 13 31V19C13 17.9391 13.4214 16.9217 14.1716 16.1716C14.9217 15.4214 15.9391 15 17 15H37C38.0609 15 39.0783 15.4214 39.8284 16.1716C40.5786 16.9217 41 17.9391 41 19V31C41 32.0609 40.5786 33.0783 39.8284 33.8284C39.0783 34.5786 38.0609 35 37 35H32.165L28.736 41Z" fill="white"/>
</svg>
