<svg width="68" height="68" viewBox="0 0 68 68" fill="none" xmlns="http://www.w3.org/2000/svg">
<circle cx="34" cy="34" r="33" fill="white" stroke="#FBAE1E" stroke-width="2"/>
<path fill-rule="evenodd" clip-rule="evenodd" d="M28.7484 35.0015C28.4828 34.7358 28.3336 34.3756 28.3336 33.9999C28.3336 33.6243 28.4828 33.264 28.7484 32.9983L36.7625 24.9842C36.8932 24.8489 37.0495 24.741 37.2223 24.6668C37.3952 24.5925 37.5811 24.5534 37.7692 24.5518C37.9573 24.5502 38.1438 24.586 38.3179 24.6573C38.492 24.7285 38.6502 24.8337 38.7832 24.9667C38.9162 25.0997 39.0214 25.2579 39.0927 25.432C39.1639 25.6061 39.1997 25.7926 39.1981 25.9807C39.1965 26.1688 39.1574 26.3547 39.0831 26.5276C39.0089 26.7004 38.901 26.8567 38.7657 26.9874L31.7532 33.9999L38.7657 41.0124C39.0237 41.2796 39.1665 41.6375 39.1633 42.0089C39.1601 42.3803 39.0111 42.7357 38.7484 42.9983C38.4857 43.261 38.1304 43.41 37.759 43.4132C37.3875 43.4164 37.0297 43.2736 36.7625 43.0156L28.7484 35.0015Z" fill="black"/>
</svg>
