<svg width="68" height="68" viewBox="0 0 68 68" fill="none" xmlns="http://www.w3.org/2000/svg">
<circle cx="34" cy="34" r="33" transform="matrix(-1 0 0 1 68 0)" fill="white" stroke="#FBAE1E" stroke-width="2"/>
<path fill-rule="evenodd" clip-rule="evenodd" d="M39.2516 35.0015C39.5171 34.7358 39.6663 34.3756 39.6663 33.9999C39.6663 33.6243 39.5171 33.264 39.2516 32.9983L31.2375 24.9842C31.1068 24.8489 30.9505 24.741 30.7776 24.6668C30.6048 24.5925 30.4189 24.5534 30.2308 24.5518C30.0427 24.5502 29.8561 24.586 29.682 24.6573C29.5079 24.7285 29.3498 24.8337 29.2168 24.9667C29.0837 25.0997 28.9785 25.2579 28.9073 25.432C28.8361 25.6061 28.8002 25.7926 28.8019 25.9807C28.8035 26.1688 28.8426 26.3547 28.9168 26.5276C28.9911 26.7004 29.099 26.8567 29.2343 26.9874L36.2468 33.9999L29.2343 41.0124C28.9763 41.2796 28.8335 41.6375 28.8367 42.0089C28.8399 42.3803 28.9889 42.7357 29.2516 42.9983C29.5142 43.261 29.8695 43.41 30.241 43.4132C30.6124 43.4164 30.9703 43.2736 31.2375 43.0156L39.2516 35.0015Z" fill="black"/>
</svg>
