<svg width="29" height="29" viewBox="0 0 29 29" fill="none" xmlns="http://www.w3.org/2000/svg">
<circle cx="14.5" cy="14.5" r="14.5" fill="#17C274"/>
<path d="M17.6143 11.3106C17.7919 11.1415 18.0283 11.048 18.2735 11.0498C18.5187 11.0517 18.7537 11.1487 18.9287 11.3205C19.1037 11.4923 19.2052 11.7253 19.2117 11.9705C19.2182 12.2156 19.1292 12.4537 18.9634 12.6345L13.9326 18.9262C13.8461 19.0194 13.7417 19.0942 13.6256 19.1461C13.5095 19.198 13.3842 19.2259 13.2571 19.2283C13.1299 19.2306 13.0037 19.2073 12.8857 19.1598C12.7678 19.1122 12.6607 19.0413 12.5708 18.9514L9.23457 15.6152C9.14166 15.5286 9.06714 15.4242 9.01546 15.3082C8.96377 15.1922 8.93598 15.067 8.93374 14.94C8.9315 14.813 8.95486 14.6869 9.00242 14.5692C9.04998 14.4514 9.12077 14.3444 9.21057 14.2546C9.30037 14.1648 9.40733 14.0941 9.52508 14.0465C9.64283 13.9989 9.76896 13.9756 9.89593 13.9778C10.0229 13.9801 10.1481 14.0078 10.2641 14.0595C10.3801 14.1112 10.4845 14.1857 10.5711 14.2786L13.2114 16.9176L17.5904 11.3383L17.6143 11.3106Z" fill="white"/>
</svg>
