<svg width="24" height="23" viewBox="0 0 24 23" fill="none" xmlns="http://www.w3.org/2000/svg">
<rect x="1.5" y="1" width="21" height="21" rx="4" fill="#FFC100" stroke="#FFC100" stroke-width="2"/>
<path d="M14.9456 8.25506C15.1184 8.08965 15.3483 7.99821 15.5869 8.00003C15.8255 8.00184 16.0541 8.09677 16.2244 8.26478C16.3947 8.4328 16.4934 8.66075 16.4997 8.90055C16.506 9.14034 16.4194 9.37323 16.2582 9.55005L11.3636 15.7044C11.2794 15.7955 11.1778 15.8686 11.0649 15.9194C10.952 15.9702 10.83 15.9975 10.7064 15.9998C10.5827 16.0021 10.4598 15.9793 10.3451 15.9328C10.2304 15.8863 10.1262 15.817 10.0387 15.729L6.79283 12.4656C6.70243 12.381 6.62993 12.2788 6.57965 12.1654C6.52936 12.0519 6.50232 11.9294 6.50014 11.8052C6.49796 11.681 6.52069 11.5577 6.56696 11.4425C6.61323 11.3273 6.68211 11.2227 6.76947 11.1348C6.85684 11.047 6.9609 10.9778 7.07547 10.9312C7.19003 10.8847 7.31273 10.8619 7.43627 10.8641C7.5598 10.8662 7.68163 10.8934 7.79449 10.944C7.90734 10.9945 8.00892 11.0674 8.09315 11.1583L10.6619 13.7397L14.9223 8.28219L14.9456 8.25506Z" fill="white"/>
</svg>
