<svg width="96" height="96" viewBox="0 0 96 96" fill="none" xmlns="http://www.w3.org/2000/svg">
<rect width="96" height="96" rx="48" fill="#B8EEC6"/>
<rect x="21" y="30" width="55" height="15" rx="1" stroke="black" stroke-width="2"/>
<rect x="21" y="51" width="55" height="15" rx="1" stroke="black" stroke-width="2"/>
<path d="M37 30.5V45" stroke="black" stroke-width="2"/>
<path d="M37 52V66.5" stroke="black" stroke-width="2"/>
<path d="M27.5 41V34.5H31V41" stroke="black" stroke-width="2"/>
<path d="M27.5 38H30.5" stroke="black" stroke-width="2"/>
<path d="M31.5 58V61.5H27V58M31.5 58H27M31.5 58V54.5H27V58" stroke="black" stroke-width="2"/>
<rect x="40.75" y="56.75" width="4.5" height="4.5" stroke="black" stroke-width="1.5"/>
<rect x="48.75" y="56.75" width="4.5" height="4.5" stroke="black" stroke-width="1.5"/>
<rect x="40.75" y="35.75" width="4.5" height="4.5" stroke="black" stroke-width="1.5"/>
<rect x="48.75" y="35.75" width="4.5" height="4.5" stroke="black" stroke-width="1.5"/>
<rect x="56.75" y="35.75" width="4.5" height="4.5" stroke="black" stroke-width="1.5"/>
<rect x="64.75" y="35.75" width="4.5" height="4.5" stroke="black" stroke-width="1.5"/>
</svg>
