<svg width="21" height="21" viewBox="0 0 21 21" fill="none" xmlns="http://www.w3.org/2000/svg">
<path d="M9.125 3.18182H12.875C12.875 2.6755 12.6775 2.18991 12.3258 1.83189C11.9742 1.47386 11.4973 1.27273 11 1.27273C10.5027 1.27273 10.0258 1.47386 9.67417 1.83189C9.32254 2.18991 9.125 2.6755 9.125 3.18182ZM7.875 3.18182C7.875 2.33795 8.20424 1.52864 8.79029 0.931933C9.37634 0.335226 10.1712 0 11 0C11.8288 0 12.6237 0.335226 13.2097 0.931933C13.7958 1.52864 14.125 2.33795 14.125 3.18182H20.375C20.5408 3.18182 20.6997 3.24886 20.8169 3.3682C20.9342 3.48755 21 3.64941 21 3.81818C21 3.98696 20.9342 4.14882 20.8169 4.26816C20.6997 4.3875 20.5408 4.45455 20.375 4.45455H19.0575L17.565 17.6196C17.4595 18.5502 17.0217 19.4089 16.3348 20.0322C15.648 20.6555 14.7601 20.9999 13.84 21H8.16C7.23994 20.9999 6.35202 20.6555 5.66517 20.0322C4.97833 19.4089 4.5405 18.5502 4.435 17.6196L2.9425 4.45455H1.625C1.45924 4.45455 1.30027 4.3875 1.18306 4.26816C1.06585 4.14882 1 3.98696 1 3.81818C1 3.64941 1.06585 3.48755 1.18306 3.3682C1.30027 3.24886 1.45924 3.18182 1.625 3.18182H7.875ZM9.75 8.27273C9.75 8.10395 9.68415 7.94209 9.56694 7.82275C9.44973 7.70341 9.29076 7.63636 9.125 7.63636C8.95924 7.63636 8.80027 7.70341 8.68306 7.82275C8.56585 7.94209 8.5 8.10395 8.5 8.27273V15.9091C8.5 16.0779 8.56585 16.2397 8.68306 16.3591C8.80027 16.4784 8.95924 16.5455 9.125 16.5455C9.29076 16.5455 9.44973 16.4784 9.56694 16.3591C9.68415 16.2397 9.75 16.0779 9.75 15.9091V8.27273ZM12.875 7.63636C12.7092 7.63636 12.5503 7.70341 12.4331 7.82275C12.3158 7.94209 12.25 8.10395 12.25 8.27273V15.9091C12.25 16.0779 12.3158 16.2397 12.4331 16.3591C12.5503 16.4784 12.7092 16.5455 12.875 16.5455C13.0408 16.5455 13.1997 16.4784 13.3169 16.3591C13.4342 16.2397 13.5 16.0779 13.5 15.9091V8.27273C13.5 8.10395 13.4342 7.94209 13.3169 7.82275C13.1997 7.70341 13.0408 7.63636 12.875 7.63636Z" fill="white"/>
</svg>
