<svg width="40" height="40" viewBox="0 0 40 40" fill="none" xmlns="http://www.w3.org/2000/svg">
<path d="M35 0H5C2.23858 0 0 2.23858 0 5V35C0 37.7614 2.23858 40 5 40H35C37.7614 40 40 37.7614 40 35V5C40 2.23858 37.7614 0 35 0Z" fill="#E94646"/>
<path d="M15 29C14.45 29 13.979 28.804 13.587 28.412C13.195 28.02 12.9993 27.5493 13 27V14H12V12H17V11H23V12H28V14H27V27C27 27.55 26.804 28.021 26.412 28.413C26.02 28.805 25.5493 29.0007 25 29H15ZM25 14H15V27H25V14ZM17 25H19V16H17V25ZM21 25H23V16H21V25Z" fill="white"/>
</svg>
