<svg width="40" height="40" viewBox="0 0 40 40" fill="none" xmlns="http://www.w3.org/2000/svg">
<path d="M35 0H5C2.23858 0 0 2.23858 0 5V35C0 37.7614 2.23858 40 5 40H35C37.7614 40 40 37.7614 40 35V5C40 2.23858 37.7614 0 35 0Z" fill="#1FAF38"/>
<path d="M11.75 25.005V27.7916C11.75 28.0483 11.9517 28.25 12.2083 28.25H14.995C15.1142 28.25 15.2333 28.2041 15.3158 28.1125L25.3258 18.1116L21.8883 14.6741L11.8875 24.675C11.7958 24.7666 11.75 24.8766 11.75 25.005ZM27.9842 15.4533C28.0691 15.3685 28.1366 15.2678 28.1826 15.1569C28.2286 15.046 28.2522 14.9271 28.2522 14.8071C28.2522 14.687 28.2286 14.5681 28.1826 14.4572C28.1366 14.3464 28.0691 14.2456 27.9842 14.1608L25.8392 12.0158C25.7544 11.9308 25.6536 11.8634 25.5427 11.8174C25.4318 11.7714 25.313 11.7477 25.1929 11.7477C25.0729 11.7477 24.954 11.7714 24.8431 11.8174C24.7322 11.8634 24.6315 11.9308 24.5467 12.0158L22.8692 13.6933L26.3067 17.1308L27.9842 15.4533Z" fill="white"/>
</svg>
