<svg width="25" height="24" viewBox="0 0 25 24" fill="none" xmlns="http://www.w3.org/2000/svg">
<path d="M21.8098 23.3333C22.4816 23.3333 23.0421 23.1088 23.4913 22.6596C23.9405 22.2104 24.1655 21.6494 24.1665 20.9767V16.4354H22.7082V20.9781C22.7082 21.2027 22.6148 21.4088 22.4282 21.5965C22.2415 21.7841 22.0359 21.8774 21.8113 21.8765H3.18838C2.96477 21.8765 2.75914 21.7831 2.5715 21.5965C2.38386 21.4098 2.29053 21.2037 2.2915 20.9781V2.35667C2.2915 2.13208 2.38484 1.92597 2.5715 1.73833C2.75817 1.55069 2.96428 1.45736 3.18983 1.45833H21.8098C22.0344 1.45833 22.2405 1.55167 22.4282 1.73833C22.6158 1.925 22.7091 2.13111 22.7082 2.35667V6.89792H24.1665V2.35667C24.1665 1.68486 23.9414 1.12437 23.4913 0.675208C23.0412 0.226041 22.4807 0.000972222 21.8098 0H3.18838C2.51754 0 1.95706 0.225069 1.50692 0.675208C1.05678 1.12535 0.832197 1.68583 0.83317 2.35667V20.9781C0.83317 21.649 1.05775 22.2094 1.50692 22.6596C1.95609 23.1097 2.51706 23.3343 3.18983 23.3333H21.8098ZM14.1828 17.3877L15.2138 16.3377L11.2719 12.3958H24.1665V10.9375H11.2719L15.2123 6.99417L14.1813 5.94562L8.46025 11.6667L14.1828 17.3877Z" fill="#FFF"/>
</svg>
