<svg width="21" height="23" viewBox="0 0 21 23" fill="none" xmlns="http://www.w3.org/2000/svg">
<g clip-path="url(#clip0_1786_889)">
<path d="M10.0166 11.4475C11.5346 11.4475 12.9905 10.8445 14.0639 9.77109C15.1373 8.69768 15.7404 7.24181 15.7404 5.72377C15.7404 4.20573 15.1373 2.74987 14.0639 1.67645C12.9905 0.603039 11.5346 0 10.0166 0C8.49856 0 7.0427 0.603039 5.96928 1.67645C4.89587 2.74987 4.29283 4.20573 4.29283 5.72377C4.29283 7.24181 4.89587 8.69768 5.96928 9.77109C7.0427 10.8445 8.49856 11.4475 10.0166 11.4475ZM7.97304 13.594C3.56841 13.594 0 17.1624 0 21.567C0 22.3004 0.594736 22.8951 1.32809 22.8951H18.7051C19.4385 22.8951 20.0332 22.3004 20.0332 21.567C20.0332 17.1624 16.4648 13.594 12.0602 13.594H7.97304Z" fill="#FBAE1E"/>
</g>
<defs>
<clipPath id="clip0_1786_889">
<rect width="20.0332" height="22.8951" fill="white"/>
</clipPath>
</defs>
</svg>
