<svg width="21" height="23" viewBox="0 0 21 23" fill="none" xmlns="http://www.w3.org/2000/svg">
<g clip-path="url(#clip0_1786_883)">
<path d="M13.8596 5.72377C13.8596 4.775 13.4827 3.86508 12.8118 3.1942C12.1409 2.52331 11.231 2.14641 10.2822 2.14641C9.33345 2.14641 8.42354 2.52331 7.75265 3.1942C7.08177 3.86508 6.70487 4.775 6.70487 5.72377C6.70487 6.67255 7.08177 7.58246 7.75265 8.25335C8.42354 8.92423 9.33345 9.30113 10.2822 9.30113C11.231 9.30113 12.1409 8.92423 12.8118 8.25335C13.4827 7.58246 13.8596 6.67255 13.8596 5.72377ZM4.55845 5.72377C4.55845 4.20573 5.16149 2.74987 6.23491 1.67645C7.30832 0.603039 8.76419 0 10.2822 0C11.8003 0 13.2561 0.603039 14.3295 1.67645C15.403 2.74987 16.006 4.20573 16.006 5.72377C16.006 7.24181 15.403 8.69768 14.3295 9.77109C13.2561 10.8445 11.8003 11.4475 10.2822 11.4475C8.76419 11.4475 7.30832 10.8445 6.23491 9.77109C5.16149 8.69768 4.55845 7.24181 4.55845 5.72377ZM2.47017 20.7487H18.0988C17.7008 17.9181 15.2682 15.7404 12.3303 15.7404H8.24313C5.30523 15.7404 2.87262 17.9181 2.47464 20.7487H2.47017ZM0.265625 21.567C0.265625 17.1624 3.83404 13.594 8.23866 13.594H12.3258C16.7304 13.594 20.2988 17.1624 20.2988 21.567C20.2988 22.3004 19.7041 22.8951 18.9707 22.8951H1.59372C0.860361 22.8951 0.265625 22.3004 0.265625 21.567Z" fill="black"/>
</g>
<defs>
<clipPath id="clip0_1786_883">
<rect width="20.0332" height="22.8951" fill="white" transform="translate(0.265625)"/>
</clipPath>
</defs>
</svg>
