<svg width="64" height="64" viewBox="0 0 64 64" fill="none" xmlns="http://www.w3.org/2000/svg">
<path d="M37.3346 5.3335H16.0013C14.5868 5.3335 13.2303 5.8954 12.2301 6.89559C11.2299 7.89579 10.668 9.25234 10.668 10.6668V53.3335C10.668 54.748 11.2299 56.1045 12.2301 57.1047C13.2303 58.1049 14.5868 58.6668 16.0013 58.6668H48.0013C49.4158 58.6668 50.7723 58.1049 51.7725 57.1047C52.7727 56.1045 53.3346 54.748 53.3346 53.3335V21.3335L37.3346 5.3335Z" stroke="black" stroke-width="2" stroke-linecap="round" stroke-linejoin="round"/>
<path d="M37.332 5.3335V21.3335H53.332" stroke="black" stroke-width="2" stroke-linecap="round" stroke-linejoin="round"/>
<path d="M42.6654 34.6665H21.332" stroke="black" stroke-width="2" stroke-linecap="round" stroke-linejoin="round"/>
<path d="M42.6654 45.3335H21.332" stroke="black" stroke-width="2" stroke-linecap="round" stroke-linejoin="round"/>
<path d="M26.6654 24H23.9987H21.332" stroke="black" stroke-width="2" stroke-linecap="round" stroke-linejoin="round"/>
</svg>
