<svg width="47" height="47" viewBox="0 0 47 47" fill="none" xmlns="http://www.w3.org/2000/svg">
<rect width="47" height="47" rx="5" fill="#1989F8"/>
<path d="M19.577 8.41811L9.658 5.11111C9.358 5.01111 9.208 4.96111 9.104 5.03611C9 5.11211 9 5.26911 9 5.58611V12.8921L19.577 9.36611C20.165 9.17011 20.459 9.07211 20.459 8.89211C20.459 8.71211 20.165 8.61411 19.577 8.41811Z" fill="white"/>
<path d="M9 11.8172V5.50628C9 5.23246 9 5.09598 9.09076 5.03119C9.18152 4.96641 9.31242 5.0096 9.57422 5.09598L18.2303 7.95256C18.7434 8.12187 19 8.20652 19 8.362C19 8.51749 18.7434 8.60214 18.2303 8.77145L9 11.8172ZM9 11.8172V17Z" fill="white"/>
<path d="M9 11.8172V5.50628C9 5.23246 9 5.09598 9.09076 5.03119C9.18152 4.96641 9.31242 5.0096 9.57422 5.09598L18.2303 7.95256C18.7434 8.12187 19 8.20652 19 8.362C19 8.51749 18.7434 8.60214 18.2303 8.77145L9 11.8172ZM9 11.8172V17" stroke="white" stroke-width="2" stroke-linecap="round"/>
</svg>
