<svg width="33" height="33" viewBox="0 0 33 33" fill="none" xmlns="http://www.w3.org/2000/svg">
<path d="M1.375 28.875L16.5 2.75L31.625 28.875H1.375ZM16.5 24.75C16.8896 24.75 17.2164 24.618 17.4804 24.354C17.7444 24.09 17.8759 23.7637 17.875 23.375C17.8741 22.9863 17.7421 22.66 17.479 22.396C17.2159 22.132 16.8896 22 16.5 22C16.1104 22 15.7841 22.132 15.521 22.396C15.2579 22.66 15.1259 22.9863 15.125 23.375C15.1241 23.7637 15.2561 24.0905 15.521 24.3554C15.7859 24.6203 16.1123 24.7518 16.5 24.75ZM15.125 20.625H17.875V13.75H15.125V20.625Z" fill="#FF0000"/>
</svg>
