<svg width="52" height="52" viewBox="0 0 52 52" fill="none" xmlns="http://www.w3.org/2000/svg">
<path d="M8.6668 22.5333V20.8H6.93346V22.5333H8.6668ZM22.5335 22.5333V20.8H20.8001V22.5333H22.5335ZM22.5335 36.4H20.8001V38.1333H22.5335V36.4ZM46.8001 12.1333H48.5335V11.4157L48.0273 10.9061L46.8001 12.1333ZM36.4001 1.73333L37.6273 0.506133L37.1177 0H36.4001V1.73333ZM8.6668 24.2667H12.1335V20.8H8.6668V24.2667ZM10.4001 38.1333V29.4667H6.93346V38.1333H10.4001ZM10.4001 29.4667V22.5333H6.93346V29.4667H10.4001ZM12.1335 27.7333H8.6668V31.2H12.1335V27.7333ZM13.8668 26C13.8668 26.4597 13.6842 26.9006 13.3591 27.2257C13.0341 27.5507 12.5932 27.7333 12.1335 27.7333V31.2C13.5126 31.2 14.8352 30.6521 15.8104 29.677C16.7856 28.7018 17.3335 27.3791 17.3335 26H13.8668ZM12.1335 24.2667C12.5932 24.2667 13.0341 24.4493 13.3591 24.7743C13.6842 25.0994 13.8668 25.5403 13.8668 26H17.3335C17.3335 24.6209 16.7856 23.2982 15.8104 22.323C14.8352 21.3479 13.5126 20.8 12.1335 20.8V24.2667ZM20.8001 22.5333V36.4H24.2668V22.5333H20.8001ZM22.5335 38.1333H26.0001V34.6667H22.5335V38.1333ZM31.2001 32.9333V26H27.7335V32.9333H31.2001ZM26.0001 20.8H22.5335V24.2667H26.0001V20.8ZM31.2001 26C31.2001 24.6209 30.6523 23.2982 29.6771 22.323C28.7019 21.3479 27.3793 20.8 26.0001 20.8V24.2667C26.4598 24.2667 26.9007 24.4493 27.2258 24.7743C27.5508 25.0994 27.7335 25.5403 27.7335 26H31.2001ZM26.0001 38.1333C27.3793 38.1333 28.7019 37.5855 29.6771 36.6103C30.6523 35.6351 31.2001 34.3125 31.2001 32.9333H27.7335C27.7335 33.393 27.5508 33.8339 27.2258 34.159C26.9007 34.484 26.4598 34.6667 26.0001 34.6667V38.1333ZM34.6668 20.8V38.1333H38.1335V20.8H34.6668ZM36.4001 24.2667H45.0668V20.8H36.4001V24.2667ZM36.4001 31.2H41.6001V27.7333H36.4001V31.2ZM6.93346 17.3333V5.2H3.4668V17.3333H6.93346ZM45.0668 12.1333V17.3333H48.5335V12.1333H45.0668ZM8.6668 3.46667H36.4001V0H8.6668V3.46667ZM35.1729 2.96053L45.5729 13.3605L48.0273 10.9061L37.6273 0.506133L35.1729 2.96053ZM6.93346 5.2C6.93346 4.74029 7.11608 4.29941 7.44115 3.97435C7.76621 3.64929 8.20709 3.46667 8.6668 3.46667V0C7.28767 0 5.96503 0.547856 4.98984 1.52304C4.01465 2.49823 3.4668 3.82087 3.4668 5.2H6.93346ZM3.4668 41.6V46.8H6.93346V41.6H3.4668ZM8.6668 52H43.3335V48.5333H8.6668V52ZM48.5335 46.8V41.6H45.0668V46.8H48.5335ZM43.3335 52C44.7126 52 46.0352 51.4521 47.0104 50.477C47.9856 49.5018 48.5335 48.1791 48.5335 46.8H45.0668C45.0668 47.2597 44.8842 47.7006 44.5591 48.0257C44.2341 48.3507 43.7932 48.5333 43.3335 48.5333V52ZM3.4668 46.8C3.4668 48.1791 4.01465 49.5018 4.98984 50.477C5.96503 51.4521 7.28767 52 8.6668 52V48.5333C8.20709 48.5333 7.76621 48.3507 7.44115 48.0257C7.11608 47.7006 6.93346 47.2597 6.93346 46.8H3.4668Z" fill="black"/>
</svg>
