<svg width="14" height="15" viewBox="0 0 14 15" fill="none" xmlns="http://www.w3.org/2000/svg">
<path d="M5.81118 1.65881C6.18537 0.507175 7.81463 0.507175 8.18882 1.65881L8.9645 4.0461C9.13184 4.56113 9.61179 4.90983 10.1533 4.90983H12.6635C13.8744 4.90983 14.3778 6.45935 13.3982 7.1711L11.3674 8.64653C10.9293 8.96483 10.746 9.52904 10.9134 10.0441L11.689 12.4314C12.0632 13.583 10.7451 14.5407 9.76548 13.8289L7.73473 12.3535C7.29662 12.0352 6.70338 12.0352 6.26527 12.3535L4.23452 13.8289C3.25488 14.5407 1.93678 13.583 2.31097 12.4314L3.08664 10.0441C3.25399 9.52904 3.07066 8.96483 2.63256 8.64653L0.601807 7.1711C-0.377835 6.45935 0.125635 4.90983 1.33654 4.90983H3.84668C4.38821 4.90983 4.86816 4.56113 5.0355 4.0461L5.81118 1.65881Z" fill="#8F8F8F"/>
</svg>
