<svg width="64" height="64" viewBox="0 0 64 64" fill="none" xmlns="http://www.w3.org/2000/svg">
<path d="M28.0484 22.6432C27.8062 22.4918 27.5279 22.408 27.2424 22.4005C26.9569 22.393 26.6746 22.4621 26.4248 22.6005C26.175 22.739 25.9668 22.9418 25.8218 23.1879C25.6768 23.434 25.6004 23.7144 25.6004 24V40.48C25.6003 40.7692 25.6787 41.0529 25.827 41.3012C25.9754 41.5494 26.1883 41.7527 26.443 41.8896C26.6978 42.0265 26.9848 42.0918 27.2737 42.0785C27.5626 42.0653 27.8425 41.974 28.0836 41.8144L40.8836 33.3376C41.1064 33.1899 41.2887 32.9887 41.4138 32.7524C41.5389 32.5161 41.6027 32.2522 41.5995 31.9849C41.5964 31.7175 41.5262 31.4552 41.3956 31.222C41.2649 30.9887 41.0779 30.7919 40.8516 30.6496L28.0484 22.6432ZM14.4004 9.59998C12.2787 9.59998 10.2438 10.4428 8.74354 11.9431C7.24325 13.4434 6.40039 15.4782 6.40039 17.6V46.4C6.40039 48.5217 7.24325 50.5565 8.74354 52.0568C10.2438 53.5571 12.2787 54.4 14.4004 54.4H49.6004C51.7221 54.4 53.757 53.5571 55.2572 52.0568C56.7575 50.5565 57.6004 48.5217 57.6004 46.4V17.6C57.6004 15.4782 56.7575 13.4434 55.2572 11.9431C53.757 10.4428 51.7221 9.59998 49.6004 9.59998H14.4004ZM9.60039 17.6C9.60039 16.3269 10.1061 15.106 11.0063 14.2059C11.9065 13.3057 13.1274 12.8 14.4004 12.8H49.6004C50.8734 12.8 52.0943 13.3057 52.9945 14.2059C53.8947 15.106 54.4004 16.3269 54.4004 17.6V46.4C54.4004 47.673 53.8947 48.8939 52.9945 49.7941C52.0943 50.6943 50.8734 51.2 49.6004 51.2H14.4004C13.1274 51.2 11.9065 50.6943 11.0063 49.7941C10.1061 48.8939 9.60039 47.673 9.60039 46.4V17.6Z" fill="black"/>
</svg>
