<svg width="20" height="20" viewBox="0 0 20 20" fill="none" xmlns="http://www.w3.org/2000/svg">
<path d="M4.0625 2.5C3.31658 2.5 2.60121 2.79632 2.07376 3.32376C1.54632 3.85121 1.25 4.56658 1.25 5.3125V14.6875C1.25 15.4334 1.54632 16.1488 2.07376 16.6762C2.60121 17.2037 3.31658 17.5 4.0625 17.5H15.9375C16.6834 17.5 17.3988 17.2037 17.9262 16.6762C18.4537 16.1488 18.75 15.4334 18.75 14.6875V5.3125C18.75 4.56658 18.4537 3.85121 17.9262 3.32376C17.3988 2.79632 16.6834 2.5 15.9375 2.5H4.0625ZM2.5 5.3125C2.5 4.8981 2.66462 4.50067 2.95765 4.20765C3.25067 3.91462 3.6481 3.75 4.0625 3.75H15.9375C16.3519 3.75 16.7493 3.91462 17.0424 4.20765C17.3354 4.50067 17.5 4.8981 17.5 5.3125V14.6875C17.5 15.1019 17.3354 15.4993 17.0424 15.7924C16.7493 16.0854 16.3519 16.25 15.9375 16.25H4.0625C3.6481 16.25 3.25067 16.0854 2.95765 15.7924C2.66462 15.4993 2.5 15.1019 2.5 14.6875V5.3125ZM7.5 7.50063V12.5C7.50007 12.6079 7.52805 12.7139 7.58123 12.8077C7.6344 12.9015 7.71095 12.98 7.80344 13.0355C7.89593 13.091 8.0012 13.1216 8.10902 13.1244C8.21685 13.1271 8.32355 13.1019 8.41875 13.0512L13.105 10.5519C13.2048 10.4985 13.2883 10.4191 13.3465 10.322C13.4047 10.2249 13.4355 10.1138 13.4355 10.0006C13.4355 9.88743 13.4047 9.77635 13.3465 9.67927C13.2883 9.58218 13.2048 9.50272 13.105 9.44938L8.41937 6.94938C8.32411 6.89851 8.21728 6.87319 8.10932 6.8759C8.00135 6.87862 7.89593 6.90926 7.80333 6.96484C7.71074 7.02042 7.63412 7.09905 7.58096 7.19306C7.5278 7.28707 7.49991 7.39263 7.5 7.50063Z" fill="black"/>
</svg>
