<svg width="40" height="40" viewBox="0 0 40 40" fill="none" xmlns="http://www.w3.org/2000/svg">
<path d="M35 0H5C2.23858 0 0 2.23858 0 5V35C0 37.7614 2.23858 40 5 40H35C37.7614 40 40 37.7614 40 35V5C40 2.23858 37.7614 0 35 0Z" fill="#FF7600"/>
<path d="M20 22.75C21.5188 22.75 22.75 21.5188 22.75 20C22.75 18.4812 21.5188 17.25 20 17.25C18.4812 17.25 17.25 18.4812 17.25 20C17.25 21.5188 18.4812 22.75 20 22.75Z" fill="white"/>
<path d="M30.2714 19.7662C29.4628 17.6746 28.0591 15.8658 26.2336 14.5633C24.4082 13.2608 22.2411 12.5218 20.0002 12.4375C17.7593 12.5218 15.5922 13.2608 13.7668 14.5633C11.9413 15.8658 10.5376 17.6746 9.72895 19.7662C9.67434 19.9173 9.67434 20.0827 9.72895 20.2338C10.5376 22.3254 11.9413 24.1342 13.7668 25.4367C15.5922 26.7392 17.7593 27.4782 20.0002 27.5625C22.2411 27.4782 24.4082 26.7392 26.2336 25.4367C28.0591 24.1342 29.4628 22.3254 30.2714 20.2338C30.3261 20.0827 30.3261 19.9173 30.2714 19.7662ZM20.0002 24.4688C19.1164 24.4688 18.2524 24.2067 17.5175 23.7156C16.7826 23.2246 16.2098 22.5267 15.8716 21.7101C15.5334 20.8936 15.4449 19.995 15.6173 19.1282C15.7897 18.2613 16.2153 17.4651 16.8403 16.8401C17.4653 16.2152 18.2615 15.7895 19.1284 15.6171C19.9952 15.4447 20.8938 15.5332 21.7103 15.8714C22.5269 16.2096 23.2248 16.7824 23.7158 17.5173C24.2069 18.2522 24.4689 19.1162 24.4689 20C24.4671 21.1846 23.9957 22.3202 23.1581 23.1579C22.3204 23.9955 21.1848 24.4669 20.0002 24.4688Z" fill="white"/>
</svg>
