<svg width="46" height="46" viewBox="0 0 46 46" fill="none" xmlns="http://www.w3.org/2000/svg">
<circle cx="23.1999" cy="22.8" r="22.3" fill="#2F2F2F" stroke="#FBAE1E"/>
<path d="M20.8 26.3999L27.028 22.7999L20.8 19.1999V26.3999ZM34.672 17.0039C34.828 17.5679 34.936 18.3239 35.008 19.2839C35.092 20.2439 35.128 21.0719 35.128 21.7919L35.2 22.7999C35.2 25.4279 35.008 27.3599 34.672 28.5959C34.372 29.6759 33.676 30.3719 32.596 30.6719C32.032 30.8279 31 30.9359 29.416 31.0079C27.856 31.0919 26.428 31.1279 25.108 31.1279L23.2 31.1999C18.172 31.1999 15.04 31.0079 13.804 30.6719C12.724 30.3719 12.028 29.6759 11.728 28.5959C11.572 28.0319 11.464 27.2759 11.392 26.3159C11.308 25.3559 11.272 24.5279 11.272 23.8079L11.2 22.7999C11.2 20.1719 11.392 18.2399 11.728 17.0039C12.028 15.9239 12.724 15.2279 13.804 14.9279C14.368 14.7719 15.4 14.6639 16.984 14.5919C18.544 14.5079 19.972 14.4719 21.292 14.4719L23.2 14.3999C28.228 14.3999 31.36 14.5919 32.596 14.9279C33.676 15.2279 34.372 15.9239 34.672 17.0039Z" fill="#FBAE1E"/>
</svg>
