<svg width="36" height="36" viewBox="0 0 36 36" fill="none" xmlns="http://www.w3.org/2000/svg">
<path d="M10.5 27V25.5C10.5 23.5109 11.2902 21.6032 12.6967 20.1967C14.1032 18.7902 16.0109 18 18 18M18 18C19.9891 18 21.8968 18.7902 23.3033 20.1967C24.7098 21.6032 25.5 23.5109 25.5 25.5V27M18 18C19.1935 18 20.3381 17.5259 21.182 16.682C22.0259 15.8381 22.5 14.6935 22.5 13.5C22.5 12.3065 22.0259 11.1619 21.182 10.318C20.3381 9.47411 19.1935 9 18 9C16.8065 9 15.6619 9.47411 14.818 10.318C13.9741 11.1619 13.5 12.3065 13.5 13.5C13.5 14.6935 13.9741 15.8381 14.818 16.682C15.6619 17.5259 16.8065 18 18 18ZM1.5 27V25.5C1.5 24.3065 1.97411 23.1619 2.81802 22.318C3.66193 21.4741 4.80653 21 6 21M6 21C6.79565 21 7.55871 20.6839 8.12132 20.1213C8.68393 19.5587 9 18.7956 9 18C9 17.2044 8.68393 16.4413 8.12132 15.8787C7.55871 15.3161 6.79565 15 6 15C5.20435 15 4.44129 15.3161 3.87868 15.8787C3.31607 16.4413 3 17.2044 3 18C3 18.7956 3.31607 19.5587 3.87868 20.1213C4.44129 20.6839 5.20435 21 6 21ZM34.5 27V25.5C34.5 24.3065 34.0259 23.1619 33.182 22.318C32.3381 21.4741 31.1935 21 30 21M30 21C30.7956 21 31.5587 20.6839 32.1213 20.1213C32.6839 19.5587 33 18.7956 33 18C33 17.2044 32.6839 16.4413 32.1213 15.8787C31.5587 15.3161 30.7956 15 30 15C29.2044 15 28.4413 15.3161 27.8787 15.8787C27.3161 16.4413 27 17.2044 27 18C27 18.7956 27.3161 19.5587 27.8787 20.1213C28.4413 20.6839 29.2044 21 30 21Z" stroke="#FBAE1E" stroke-width="1.5" stroke-linecap="round" stroke-linejoin="round"/>
</svg>
