<svg width="16" height="22" viewBox="0 0 16 22" fill="none" xmlns="http://www.w3.org/2000/svg">
<path d="M2.78919 18.9117C2.3451 18.9117 1.96507 18.7476 1.64909 18.4193C1.33311 18.091 1.17485 17.6959 1.17432 17.234V8.84499C1.17432 8.3836 1.33257 7.98876 1.64909 7.66047C1.96561 7.33218 2.34564 7.16776 2.78919 7.1672H3.59663V5.4894C3.59663 4.32893 3.99039 3.33987 4.77791 2.52223C5.56543 1.70458 6.5174 1.29548 7.63382 1.29492C8.75023 1.29436 9.70247 1.70347 10.4905 2.52223C11.2786 3.34099 11.6721 4.33005 11.671 5.4894V7.1672H12.4784C12.9225 7.1672 13.3028 7.33162 13.6194 7.66047C13.9359 7.98931 14.0939 8.38416 14.0933 8.84499V17.234C14.0933 17.6953 13.9353 18.0905 13.6194 18.4193C13.3034 18.7482 12.9231 18.9123 12.4784 18.9117H2.78919ZM2.78919 17.234H12.4784V8.84499H2.78919V17.234ZM7.63382 14.7173C8.07791 14.7173 8.45821 14.5531 8.77473 14.2248C9.09124 13.8965 9.24923 13.5014 9.24869 13.0395C9.24815 12.5775 9.09017 12.1827 8.77473 11.8549C8.45929 11.5272 8.07898 11.3628 7.63382 11.3617C7.18865 11.3606 6.80862 11.525 6.49372 11.8549C6.17881 12.1849 6.02056 12.5798 6.01894 13.0395C6.01733 13.4992 6.17559 13.8943 6.49372 14.2248C6.81185 14.5554 7.19188 14.7195 7.63382 14.7173ZM5.2115 7.1672H10.0561V5.4894C10.0561 4.79032 9.82063 4.19611 9.34962 3.70675C8.87862 3.21739 8.30668 2.97272 7.63382 2.97272C6.96095 2.97272 6.38902 3.21739 5.91801 3.70675C5.44701 4.19611 5.2115 4.79032 5.2115 5.4894V7.1672Z" fill="#FBAE1E"/>
</svg>
