<svg width="19" height="22" viewBox="0 0 19 22" fill="none" xmlns="http://www.w3.org/2000/svg">
<path d="M13.5681 11.9907C12.039 11.9907 10.7565 13.1416 10.4276 14.6731C9.64661 14.3184 8.93137 14.4135 8.38877 14.6645C8.0517 13.1243 6.7692 11.9907 5.24828 11.9907C3.46428 11.9907 2.00913 13.5396 2.00913 15.4519C2.00913 17.3642 3.46428 18.9131 5.24828 18.9131C6.94184 18.9131 8.323 17.5113 8.45454 15.7288C8.73406 15.5211 9.46574 15.1317 10.3619 15.7461C10.5098 17.5199 11.8746 18.9131 13.5681 18.9131C15.3521 18.9131 16.8073 17.3642 16.8073 15.4519C16.8073 13.5396 15.3521 11.9907 13.5681 11.9907ZM5.24828 17.9266C3.96577 17.9266 2.93812 16.8191 2.93812 15.4519C2.93812 14.0847 3.97399 12.9772 5.24828 12.9772C6.53078 12.9772 7.55843 14.0847 7.55843 15.4519C7.55843 16.8191 6.53078 17.9266 5.24828 17.9266ZM13.5681 17.9266C12.2856 17.9266 11.258 16.8191 11.258 15.4519C11.258 14.0847 12.2856 12.9772 13.5681 12.9772C14.8506 12.9772 15.8865 14.0847 15.8865 15.4519C15.8865 16.8191 14.8424 17.9266 13.5681 17.9266ZM17.6294 9.82749H1.18701V11.1254H17.6294V9.82749ZM12.3103 3.01763C12.1294 2.59363 11.669 2.36866 11.2333 2.51576L9.4082 3.15608L7.57487 2.51576L7.53377 2.50711C7.09804 2.37731 6.63766 2.61959 6.47323 3.06089L4.47549 8.52955H14.3409L12.3349 3.06089L12.3103 3.01763Z" fill="black"/>
</svg>
