<svg width="31" height="31" viewBox="0 0 31 31" fill="none" xmlns="http://www.w3.org/2000/svg">
<path d="M30.1818 20.561H28.8182V6.21951C28.8182 5.36564 28.5021 4.54675 27.9395 3.94297C27.3769 3.3392 26.6138 3 25.8182 3H6.18182C5.38617 3 4.62311 3.3392 4.0605 3.94297C3.49789 4.54675 3.18182 5.36564 3.18182 6.21951V20.561H1.81818C1.60119 20.561 1.39308 20.6535 1.23964 20.8181C1.0862 20.9828 1 21.2062 1 21.439V23.7805C1 24.6344 1.31607 25.4533 1.87868 26.057C2.44129 26.6608 3.20435 27 4 27H28C28.7957 27 29.5587 26.6608 30.1213 26.057C30.6839 25.4533 31 24.6344 31 23.7805V21.439C31 21.2062 30.9138 20.9828 30.7604 20.8181C30.6069 20.6535 30.3988 20.561 30.1818 20.561ZM4.81818 6.21951C4.81818 5.83139 4.96185 5.45917 5.21758 5.18472C5.47331 4.91028 5.82016 4.7561 6.18182 4.7561H25.8182C26.1798 4.7561 26.5267 4.91028 26.7824 5.18472C27.0382 5.45917 27.1818 5.83139 27.1818 6.21951V20.561H4.81818V6.21951ZM29.3636 23.7805C29.3636 24.1686 29.22 24.5408 28.9642 24.8153C28.7085 25.0897 28.3617 25.2439 28 25.2439H4C3.63834 25.2439 3.29149 25.0897 3.03576 24.8153C2.78003 24.5408 2.63636 24.1686 2.63636 23.7805V22.3171H29.3636V23.7805ZM19 8.56098C19 8.79385 18.9138 9.01718 18.7604 9.18185C18.6069 9.34652 18.3988 9.43902 18.1818 9.43902H13.8182C13.6012 9.43902 13.3931 9.34652 13.2396 9.18185C13.0862 9.01718 13 8.79385 13 8.56098C13 8.3281 13.0862 8.10477 13.2396 7.9401C13.3931 7.77544 13.6012 7.68293 13.8182 7.68293H18.1818C18.3988 7.68293 18.6069 7.77544 18.7604 7.9401C18.9138 8.10477 19 8.3281 19 8.56098Z" fill="#FBAE1E"/>
</svg>
