<svg width="22" height="22" viewBox="0 0 22 22" fill="none" xmlns="http://www.w3.org/2000/svg">
<g clip-path="url(#clip0_2202_455)">
<path d="M21.6278 10.4059C21.5969 10.3363 20.8509 8.68118 19.1922 7.02256C16.9822 4.81253 14.1908 3.64453 11.1184 3.64453C8.04606 3.64453 5.25467 4.81253 3.04464 7.02256C1.38601 8.68118 0.636416 10.3389 0.609109 10.4059C0.569043 10.496 0.54834 10.5935 0.54834 10.6921C0.54834 10.7908 0.569043 10.8883 0.609109 10.9784C0.639939 11.048 1.38601 12.7022 3.04464 14.3608C5.25467 16.57 8.04606 17.738 11.1184 17.738C14.1908 17.738 16.9822 16.57 19.1922 14.3608C20.8509 12.7022 21.5969 11.048 21.6278 10.9784C21.6678 10.8883 21.6885 10.7908 21.6885 10.6921C21.6885 10.5935 21.6678 10.496 21.6278 10.4059ZM11.1184 16.3286C8.4072 16.3286 6.03862 15.343 4.07786 13.3998C3.27337 12.5997 2.58891 11.6874 2.04576 10.6913C2.5887 9.69496 3.27318 8.78261 4.07786 7.98267C6.03862 6.03954 8.4072 5.05388 11.1184 5.05388C13.8297 5.05388 16.1982 6.03954 18.159 7.98267C18.9651 8.78247 19.651 9.69481 20.1955 10.6913C19.5604 11.8769 16.7937 16.3286 11.1184 16.3286ZM11.1184 6.46322C10.2822 6.46322 9.46476 6.71119 8.76946 7.17578C8.07416 7.64036 7.53224 8.30069 7.21223 9.07326C6.89222 9.84583 6.80849 10.696 6.97163 11.5161C7.13477 12.3363 7.53745 13.0896 8.12876 13.6809C8.72006 14.2722 9.47342 14.6749 10.2936 14.8381C11.1137 15.0012 11.9639 14.9175 12.7364 14.5975C13.509 14.2774 14.1693 13.7355 14.6339 13.0402C15.0985 12.3449 15.3465 11.5275 15.3465 10.6913C15.3453 9.57027 14.8995 8.49553 14.1068 7.70287C13.3142 6.91022 12.2394 6.46439 11.1184 6.46322ZM11.1184 13.51C10.5609 13.51 10.016 13.3446 9.55245 13.0349C9.08892 12.7252 8.72764 12.285 8.5143 11.7699C8.30096 11.2549 8.24514 10.6881 8.3539 10.1414C8.46266 9.59459 8.73111 9.09235 9.12531 8.69814C9.51952 8.30394 10.0218 8.03549 10.5685 7.92673C11.1153 7.81797 11.6821 7.87379 12.1971 8.08713C12.7121 8.30047 13.1524 8.66175 13.4621 9.12528C13.7718 9.58881 13.9371 10.1338 13.9371 10.6913C13.9371 11.4388 13.6402 12.1558 13.1115 12.6844C12.5829 13.213 11.866 13.51 11.1184 13.51Z" fill="#FBAE1E"/>
</g>
<defs>
<clipPath id="clip0_2202_455">
<rect width="21.1402" height="21.1402" fill="white" transform="translate(0.54834 0.121094)"/>
</clipPath>
</defs>
</svg>
